<mxfile host="app.diagrams.net" modified="2023-07-20T06:08:33.399Z" agent="Mozilla/5.0 (Windows NT 10.0; Win64; x64) AppleWebKit/537.36 (KHTML, like Gecko) Chrome/114.0.0.0 Safari/537.36 Edg/114.0.1823.86" version="21.6.3" etag="FkcBP4Vb6qnfi2EUhDU9" type="github">
  <diagram name="第 1 页" id="Fmsz82hykQyD8fKg8899">
    <mxGraphModel>
      <root>
        <mxCell id="0" />
        <mxCell id="1" parent="0" />
      </root>
    </mxGraphModel>
  </diagram>
</mxfile>
